<?xml version="1.0" encoding="utf-8" standalone="no"?>
<!DOCTYPE svg PUBLIC "-//W3C//DTD SVG 1.1//EN"
  "http://www.w3.org/Graphics/SVG/1.1/DTD/svg11.dtd">
<svg xmlns:xlink="http://www.w3.org/1999/xlink" width="737.28pt" height="737.28pt" viewBox="0 0 737.28 737.28" xmlns="http://www.w3.org/2000/svg" version="1.1">
 <metadata>
  <rdf:RDF xmlns:dc="http://purl.org/dc/elements/1.1/" xmlns:cc="http://creativecommons.org/ns#" xmlns:rdf="http://www.w3.org/1999/02/22-rdf-syntax-ns#">
   <cc:Work>
    <dc:type rdf:resource="http://purl.org/dc/dcmitype/StillImage"/>
    <dc:date>2024-05-21T14:23:39.527350</dc:date>
    <dc:format>image/svg+xml</dc:format>
    <dc:creator>
     <cc:Agent>
      <dc:title>Matplotlib v3.8.4, https://matplotlib.org/</dc:title>
     </cc:Agent>
    </dc:creator>
   </cc:Work>
  </rdf:RDF>
 </metadata>
 <defs>
  <style type="text/css">*{stroke-linejoin: round; stroke-linecap: butt}</style>
 </defs>
 <g id="figure_1">
  <g id="patch_1">
   <path d="M 0 737.28 
L 737.28 737.28 
L 737.28 0 
L 0 0 
z
" style="fill: #ffffff"/>
  </g>
  <g id="axes_1">
   <g id="patch_2">
    <path d="M 62.788267 350.549333 
L 718.848 350.549333 
L 718.848 86.4256 
L 62.788267 86.4256 
z
" style="fill: #ffffff"/>
   </g>
   <g id="matplotlib.axis_1">
    <g id="xtick_1">
     <g id="line2d_1">
      <defs>
       <path id="m037403708e" d="M 0 0 
L 0 3.5 
" style="stroke: #000000; stroke-width: 0.8"/>
      </defs>
      <g>
       <use xlink:href="#m037403708e" x="91.948042" y="350.549333" style="stroke: #000000; stroke-width: 0.8"/>
      </g>
     </g>
     <g id="text_1">
      <!-- 0.0 -->
      <g transform="translate(83.99648 365.147771) scale(0.1 -0.1)">
       <defs>
        <path id="DejaVuSans-30" d="M 2034 4250 
Q 1547 4250 1301 3770 
Q 1056 3291 1056 2328 
Q 1056 1369 1301 889 
Q 1547 409 2034 409 
Q 2525 409 2770 889 
Q 3016 1369 3016 2328 
Q 3016 3291 2770 3770 
Q 2525 4250 2034 4250 
z
M 2034 4750 
Q 2819 4750 3233 4129 
Q 3647 3509 3647 2328 
Q 3647 1150 3233 529 
Q 2819 -91 2034 -91 
Q 1250 -91 836 529 
Q 422 1150 422 2328 
Q 422 3509 836 4129 
Q 1250 4750 2034 4750 
z
" transform="scale(0.015625)"/>
        <path id="DejaVuSans-2e" d="M 684 794 
L 1344 794 
L 1344 0 
L 684 0 
L 684 794 
z
" transform="scale(0.015625)"/>
       </defs>
       <use xlink:href="#DejaVuSans-30"/>
       <use xlink:href="#DejaVuSans-2e" x="63.623047"/>
       <use xlink:href="#DejaVuSans-30" x="95.410156"/>
      </g>
     </g>
    </g>
    <g id="xtick_2">
     <g id="line2d_2">
      <g>
       <use xlink:href="#m037403708e" x="233.880411" y="350.549333" style="stroke: #000000; stroke-width: 0.8"/>
      </g>
     </g>
     <g id="text_2">
      <!-- 0.2 -->
      <g transform="translate(225.928849 365.147771) scale(0.1 -0.1)">
       <defs>
        <path id="DejaVuSans-32" d="M 1228 531 
L 3431 531 
L 3431 0 
L 469 0 
L 469 531 
Q 828 903 1448 1529 
Q 2069 2156 2228 2338 
Q 2531 2678 2651 2914 
Q 2772 3150 2772 3378 
Q 2772 3750 2511 3984 
Q 2250 4219 1831 4219 
Q 1534 4219 1204 4116 
Q 875 4013 500 3803 
L 500 4441 
Q 881 4594 1212 4672 
Q 1544 4750 1819 4750 
Q 2544 4750 2975 4387 
Q 3406 4025 3406 3419 
Q 3406 3131 3298 2873 
Q 3191 2616 2906 2266 
Q 2828 2175 2409 1742 
Q 1991 1309 1228 531 
z
" transform="scale(0.015625)"/>
       </defs>
       <use xlink:href="#DejaVuSans-30"/>
       <use xlink:href="#DejaVuSans-2e" x="63.623047"/>
       <use xlink:href="#DejaVuSans-32" x="95.410156"/>
      </g>
     </g>
    </g>
    <g id="xtick_3">
     <g id="line2d_3">
      <g>
       <use xlink:href="#m037403708e" x="375.812781" y="350.549333" style="stroke: #000000; stroke-width: 0.8"/>
      </g>
     </g>
     <g id="text_3">
      <!-- 0.4 -->
      <g transform="translate(367.861218 365.147771) scale(0.1 -0.1)">
       <defs>
        <path id="DejaVuSans-34" d="M 2419 4116 
L 825 1625 
L 2419 1625 
L 2419 4116 
z
M 2253 4666 
L 3047 4666 
L 3047 1625 
L 3713 1625 
L 3713 1100 
L 3047 1100 
L 3047 0 
L 2419 0 
L 2419 1100 
L 313 1100 
L 313 1709 
L 2253 4666 
z
" transform="scale(0.015625)"/>
       </defs>
       <use xlink:href="#DejaVuSans-30"/>
       <use xlink:href="#DejaVuSans-2e" x="63.623047"/>
       <use xlink:href="#DejaVuSans-34" x="95.410156"/>
      </g>
     </g>
    </g>
    <g id="xtick_4">
     <g id="line2d_4">
      <g>
       <use xlink:href="#m037403708e" x="517.74515" y="350.549333" style="stroke: #000000; stroke-width: 0.8"/>
      </g>
     </g>
     <g id="text_4">
      <!-- 0.6 -->
      <g transform="translate(509.793587 365.147771) scale(0.1 -0.1)">
       <defs>
        <path id="DejaVuSans-36" d="M 2113 2584 
Q 1688 2584 1439 2293 
Q 1191 2003 1191 1497 
Q 1191 994 1439 701 
Q 1688 409 2113 409 
Q 2538 409 2786 701 
Q 3034 994 3034 1497 
Q 3034 2003 2786 2293 
Q 2538 2584 2113 2584 
z
M 3366 4563 
L 3366 3988 
Q 3128 4100 2886 4159 
Q 2644 4219 2406 4219 
Q 1781 4219 1451 3797 
Q 1122 3375 1075 2522 
Q 1259 2794 1537 2939 
Q 1816 3084 2150 3084 
Q 2853 3084 3261 2657 
Q 3669 2231 3669 1497 
Q 3669 778 3244 343 
Q 2819 -91 2113 -91 
Q 1303 -91 875 529 
Q 447 1150 447 2328 
Q 447 3434 972 4092 
Q 1497 4750 2381 4750 
Q 2619 4750 2861 4703 
Q 3103 4656 3366 4563 
z
" transform="scale(0.015625)"/>
       </defs>
       <use xlink:href="#DejaVuSans-30"/>
       <use xlink:href="#DejaVuSans-2e" x="63.623047"/>
       <use xlink:href="#DejaVuSans-36" x="95.410156"/>
      </g>
     </g>
    </g>
    <g id="xtick_5">
     <g id="line2d_5">
      <g>
       <use xlink:href="#m037403708e" x="659.677519" y="350.549333" style="stroke: #000000; stroke-width: 0.8"/>
      </g>
     </g>
     <g id="text_5">
      <!-- 0.8 -->
      <g transform="translate(651.725956 365.147771) scale(0.1 -0.1)">
       <defs>
        <path id="DejaVuSans-38" d="M 2034 2216 
Q 1584 2216 1326 1975 
Q 1069 1734 1069 1313 
Q 1069 891 1326 650 
Q 1584 409 2034 409 
Q 2484 409 2743 651 
Q 3003 894 3003 1313 
Q 3003 1734 2745 1975 
Q 2488 2216 2034 2216 
z
M 1403 2484 
Q 997 2584 770 2862 
Q 544 3141 544 3541 
Q 544 4100 942 4425 
Q 1341 4750 2034 4750 
Q 2731 4750 3128 4425 
Q 3525 4100 3525 3541 
Q 3525 3141 3298 2862 
Q 3072 2584 2669 2484 
Q 3125 2378 3379 2068 
Q 3634 1759 3634 1313 
Q 3634 634 3220 271 
Q 2806 -91 2034 -91 
Q 1263 -91 848 271 
Q 434 634 434 1313 
Q 434 1759 690 2068 
Q 947 2378 1403 2484 
z
M 1172 3481 
Q 1172 3119 1398 2916 
Q 1625 2713 2034 2713 
Q 2441 2713 2670 2916 
Q 2900 3119 2900 3481 
Q 2900 3844 2670 4047 
Q 2441 4250 2034 4250 
Q 1625 4250 1398 4047 
Q 1172 3844 1172 3481 
z
" transform="scale(0.015625)"/>
       </defs>
       <use xlink:href="#DejaVuSans-30"/>
       <use xlink:href="#DejaVuSans-2e" x="63.623047"/>
       <use xlink:href="#DejaVuSans-38" x="95.410156"/>
      </g>
     </g>
    </g>
   </g>
   <g id="matplotlib.axis_2">
    <g id="ytick_1">
     <g id="line2d_6">
      <defs>
       <path id="m912813fcea" d="M 0 0 
L -3.5 0 
" style="stroke: #000000; stroke-width: 0.8"/>
      </defs>
      <g>
       <use xlink:href="#m912813fcea" x="62.788267" y="350.549333" style="stroke: #000000; stroke-width: 0.8"/>
      </g>
     </g>
     <g id="text_6">
      <!-- 0 -->
      <g transform="translate(49.425767 354.348552) scale(0.1 -0.1)">
       <use xlink:href="#DejaVuSans-30"/>
      </g>
     </g>
    </g>
    <g id="ytick_2">
     <g id="line2d_7">
      <g>
       <use xlink:href="#m912813fcea" x="62.788267" y="316.739332" style="stroke: #000000; stroke-width: 0.8"/>
      </g>
     </g>
     <g id="text_7">
      <!-- 25 -->
      <g transform="translate(43.063267 320.53855) scale(0.1 -0.1)">
       <defs>
        <path id="DejaVuSans-35" d="M 691 4666 
L 3169 4666 
L 3169 4134 
L 1269 4134 
L 1269 2991 
Q 1406 3038 1543 3061 
Q 1681 3084 1819 3084 
Q 2600 3084 3056 2656 
Q 3513 2228 3513 1497 
Q 3513 744 3044 326 
Q 2575 -91 1722 -91 
Q 1428 -91 1123 -41 
Q 819 9 494 109 
L 494 744 
Q 775 591 1075 516 
Q 1375 441 1709 441 
Q 2250 441 2565 725 
Q 2881 1009 2881 1497 
Q 2881 1984 2565 2268 
Q 2250 2553 1709 2553 
Q 1456 2553 1204 2497 
Q 953 2441 691 2322 
L 691 4666 
z
" transform="scale(0.015625)"/>
       </defs>
       <use xlink:href="#DejaVuSans-32"/>
       <use xlink:href="#DejaVuSans-35" x="63.623047"/>
      </g>
     </g>
    </g>
    <g id="ytick_3">
     <g id="line2d_8">
      <g>
       <use xlink:href="#m912813fcea" x="62.788267" y="282.92933" style="stroke: #000000; stroke-width: 0.8"/>
      </g>
     </g>
     <g id="text_8">
      <!-- 50 -->
      <g transform="translate(43.063267 286.728549) scale(0.1 -0.1)">
       <use xlink:href="#DejaVuSans-35"/>
       <use xlink:href="#DejaVuSans-30" x="63.623047"/>
      </g>
     </g>
    </g>
    <g id="ytick_4">
     <g id="line2d_9">
      <g>
       <use xlink:href="#m912813fcea" x="62.788267" y="249.119328" style="stroke: #000000; stroke-width: 0.8"/>
      </g>
     </g>
     <g id="text_9">
      <!-- 75 -->
      <g transform="translate(43.063267 252.918547) scale(0.1 -0.1)">
       <defs>
        <path id="DejaVuSans-37" d="M 525 4666 
L 3525 4666 
L 3525 4397 
L 1831 0 
L 1172 0 
L 2766 4134 
L 525 4134 
L 525 4666 
z
" transform="scale(0.015625)"/>
       </defs>
       <use xlink:href="#DejaVuSans-37"/>
       <use xlink:href="#DejaVuSans-35" x="63.623047"/>
      </g>
     </g>
    </g>
    <g id="ytick_5">
     <g id="line2d_10">
      <g>
       <use xlink:href="#m912813fcea" x="62.788267" y="215.309327" style="stroke: #000000; stroke-width: 0.8"/>
      </g>
     </g>
     <g id="text_10">
      <!-- 100 -->
      <g transform="translate(36.700767 219.108545) scale(0.1 -0.1)">
       <defs>
        <path id="DejaVuSans-31" d="M 794 531 
L 1825 531 
L 1825 4091 
L 703 3866 
L 703 4441 
L 1819 4666 
L 2450 4666 
L 2450 531 
L 3481 531 
L 3481 0 
L 794 0 
L 794 531 
z
" transform="scale(0.015625)"/>
       </defs>
       <use xlink:href="#DejaVuSans-31"/>
       <use xlink:href="#DejaVuSans-30" x="63.623047"/>
       <use xlink:href="#DejaVuSans-30" x="127.246094"/>
      </g>
     </g>
    </g>
    <g id="ytick_6">
     <g id="line2d_11">
      <g>
       <use xlink:href="#m912813fcea" x="62.788267" y="181.499325" style="stroke: #000000; stroke-width: 0.8"/>
      </g>
     </g>
     <g id="text_11">
      <!-- 125 -->
      <g transform="translate(36.700767 185.298544) scale(0.1 -0.1)">
       <use xlink:href="#DejaVuSans-31"/>
       <use xlink:href="#DejaVuSans-32" x="63.623047"/>
       <use xlink:href="#DejaVuSans-35" x="127.246094"/>
      </g>
     </g>
    </g>
    <g id="ytick_7">
     <g id="line2d_12">
      <g>
       <use xlink:href="#m912813fcea" x="62.788267" y="147.689323" style="stroke: #000000; stroke-width: 0.8"/>
      </g>
     </g>
     <g id="text_12">
      <!-- 150 -->
      <g transform="translate(36.700767 151.488542) scale(0.1 -0.1)">
       <use xlink:href="#DejaVuSans-31"/>
       <use xlink:href="#DejaVuSans-35" x="63.623047"/>
       <use xlink:href="#DejaVuSans-30" x="127.246094"/>
      </g>
     </g>
    </g>
    <g id="ytick_8">
     <g id="line2d_13">
      <g>
       <use xlink:href="#m912813fcea" x="62.788267" y="113.879321" style="stroke: #000000; stroke-width: 0.8"/>
      </g>
     </g>
     <g id="text_13">
      <!-- 175 -->
      <g transform="translate(36.700767 117.67854) scale(0.1 -0.1)">
       <use xlink:href="#DejaVuSans-31"/>
       <use xlink:href="#DejaVuSans-37" x="63.623047"/>
       <use xlink:href="#DejaVuSans-35" x="127.246094"/>
      </g>
     </g>
    </g>
   </g>
   <g id="patch_3">
    <path d="M 125.815026 350.549333 
L 125.815026 319.444132 
L 153.97563 319.444132 
L 153.97563 327.558532 
L 182.136233 327.558532 
L 182.136233 300.510531 
L 210.296837 300.510531 
L 210.296837 277.51973 
L 238.457441 277.51973 
L 238.457441 304.567731 
L 266.618045 304.567731 
L 266.618045 257.233729 
L 294.778649 257.233729 
L 294.778649 324.853732 
L 322.939253 324.853732 
L 322.939253 286.98653 
L 351.099857 286.98653 
L 351.099857 341.082533 
L 379.260461 341.082533 
L 379.260461 339.730133 
L 407.421064 339.730133 
L 407.421064 316.739332 
L 435.581668 316.739332 
L 435.581668 334.320533 
L 463.742272 334.320533 
L 463.742272 341.082533 
L 491.902876 341.082533 
L 491.902876 323.501332 
L 520.06348 323.501332 
L 520.06348 314.034531 
L 548.224084 314.034531 
L 548.224084 334.320533 
L 576.384688 334.320533 
L 576.384688 338.377733 
L 604.545291 338.377733 
L 604.545291 342.434933 
L 632.705895 342.434933 
L 632.705895 346.492133 
L 660.866499 346.492133 
L 660.866499 331.615732 
L 689.027103 331.615732 
L 689.027103 350.549333 
" clip-path="url(#p2d5d69e658)" style="fill: none; opacity: 0.8; stroke: #1f77b4; stroke-linejoin: miter"/>
   </g>
   <g id="patch_4">
    <path d="M 92.609164 350.549333 
L 92.609164 99.002921 
L 113.717657 99.002921 
L 113.717657 311.329731 
L 134.82615 311.329731 
L 134.82615 331.615732 
L 155.934644 331.615732 
L 155.934644 320.796532 
L 177.043137 320.796532 
L 177.043137 326.206132 
L 198.15163 326.206132 
L 198.15163 326.206132 
L 219.260124 326.206132 
L 219.260124 316.739332 
L 240.368617 316.739332 
L 240.368617 293.74853 
L 261.47711 293.74853 
L 261.47711 324.853732 
L 282.585604 324.853732 
L 282.585604 335.672933 
L 303.694097 335.672933 
L 303.694097 334.320533 
L 324.802591 334.320533 
L 324.802591 337.025333 
L 345.911084 337.025333 
L 345.911084 342.434933 
L 367.019577 342.434933 
L 367.019577 335.672933 
L 388.128071 335.672933 
L 388.128071 335.672933 
L 409.236564 335.672933 
L 409.236564 338.377733 
L 430.345057 338.377733 
L 430.345057 347.844533 
L 451.453551 347.844533 
L 451.453551 346.492133 
L 472.562044 346.492133 
L 472.562044 350.549333 
L 493.670537 350.549333 
L 493.670537 347.844533 
L 514.779031 347.844533 
L 514.779031 350.549333 
" clip-path="url(#p2d5d69e658)" style="fill: none; opacity: 0.8; stroke: #ff7f0e; stroke-linejoin: miter"/>
   </g>
   <g id="patch_5">
    <path d="M 116.307164 350.549333 
L 116.307164 328.910932 
L 137.232383 328.910932 
L 137.232383 304.567731 
L 158.157602 304.567731 
L 158.157602 291.04373 
L 179.082821 291.04373 
L 179.082821 241.004928 
L 200.008041 241.004928 
L 200.008041 245.062128 
L 220.93326 245.062128 
L 220.93326 311.329731 
L 241.858479 311.329731 
L 241.858479 301.862931 
L 262.783698 301.862931 
L 262.783698 308.624931 
L 283.708917 308.624931 
L 283.708917 324.853732 
L 304.634136 324.853732 
L 304.634136 328.910932 
L 325.559355 328.910932 
L 325.559355 334.320533 
L 346.484574 334.320533 
L 346.484574 331.615732 
L 367.409794 331.615732 
L 367.409794 332.968132 
L 388.335013 332.968132 
L 388.335013 338.377733 
L 409.260232 338.377733 
L 409.260232 335.672933 
L 430.185451 335.672933 
L 430.185451 347.844533 
L 451.11067 347.844533 
L 451.11067 349.196933 
L 472.035889 349.196933 
L 472.035889 350.549333 
L 492.961108 350.549333 
L 492.961108 347.844533 
L 513.886328 347.844533 
L 513.886328 347.844533 
L 534.811547 347.844533 
L 534.811547 350.549333 
" clip-path="url(#p2d5d69e658)" style="fill: none; opacity: 0.8; stroke: #2ca02c; stroke-linejoin: miter"/>
   </g>
   <g id="patch_6">
    <path d="M 62.788267 350.549333 
L 62.788267 86.4256 
" style="fill: none; stroke: #000000; stroke-width: 0.8; stroke-linejoin: miter; stroke-linecap: square"/>
   </g>
   <g id="patch_7">
    <path d="M 718.848 350.549333 
L 718.848 86.4256 
" style="fill: none; stroke: #000000; stroke-width: 0.8; stroke-linejoin: miter; stroke-linecap: square"/>
   </g>
   <g id="patch_8">
    <path d="M 62.788267 350.549333 
L 718.848 350.549333 
" style="fill: none; stroke: #000000; stroke-width: 0.8; stroke-linejoin: miter; stroke-linecap: square"/>
   </g>
   <g id="patch_9">
    <path d="M 62.788267 86.4256 
L 718.848 86.4256 
" style="fill: none; stroke: #000000; stroke-width: 0.8; stroke-linejoin: miter; stroke-linecap: square"/>
   </g>
   <g id="text_14">
    <!-- Peak performance distribution -->
    <g transform="translate(300.142196 80.4256) scale(0.12 -0.12)">
     <defs>
      <path id="DejaVuSans-50" d="M 1259 4147 
L 1259 2394 
L 2053 2394 
Q 2494 2394 2734 2622 
Q 2975 2850 2975 3272 
Q 2975 3691 2734 3919 
Q 2494 4147 2053 4147 
L 1259 4147 
z
M 628 4666 
L 2053 4666 
Q 2838 4666 3239 4311 
Q 3641 3956 3641 3272 
Q 3641 2581 3239 2228 
Q 2838 1875 2053 1875 
L 1259 1875 
L 1259 0 
L 628 0 
L 628 4666 
z
" transform="scale(0.015625)"/>
      <path id="DejaVuSans-65" d="M 3597 1894 
L 3597 1613 
L 953 1613 
Q 991 1019 1311 708 
Q 1631 397 2203 397 
Q 2534 397 2845 478 
Q 3156 559 3463 722 
L 3463 178 
Q 3153 47 2828 -22 
Q 2503 -91 2169 -91 
Q 1331 -91 842 396 
Q 353 884 353 1716 
Q 353 2575 817 3079 
Q 1281 3584 2069 3584 
Q 2775 3584 3186 3129 
Q 3597 2675 3597 1894 
z
M 3022 2063 
Q 3016 2534 2758 2815 
Q 2500 3097 2075 3097 
Q 1594 3097 1305 2825 
Q 1016 2553 972 2059 
L 3022 2063 
z
" transform="scale(0.015625)"/>
      <path id="DejaVuSans-61" d="M 2194 1759 
Q 1497 1759 1228 1600 
Q 959 1441 959 1056 
Q 959 750 1161 570 
Q 1363 391 1709 391 
Q 2188 391 2477 730 
Q 2766 1069 2766 1631 
L 2766 1759 
L 2194 1759 
z
M 3341 1997 
L 3341 0 
L 2766 0 
L 2766 531 
Q 2569 213 2275 61 
Q 1981 -91 1556 -91 
Q 1019 -91 701 211 
Q 384 513 384 1019 
Q 384 1609 779 1909 
Q 1175 2209 1959 2209 
L 2766 2209 
L 2766 2266 
Q 2766 2663 2505 2880 
Q 2244 3097 1772 3097 
Q 1472 3097 1187 3025 
Q 903 2953 641 2809 
L 641 3341 
Q 956 3463 1253 3523 
Q 1550 3584 1831 3584 
Q 2591 3584 2966 3190 
Q 3341 2797 3341 1997 
z
" transform="scale(0.015625)"/>
      <path id="DejaVuSans-6b" d="M 581 4863 
L 1159 4863 
L 1159 1991 
L 2875 3500 
L 3609 3500 
L 1753 1863 
L 3688 0 
L 2938 0 
L 1159 1709 
L 1159 0 
L 581 0 
L 581 4863 
z
" transform="scale(0.015625)"/>
      <path id="DejaVuSans-20" transform="scale(0.015625)"/>
      <path id="DejaVuSans-70" d="M 1159 525 
L 1159 -1331 
L 581 -1331 
L 581 3500 
L 1159 3500 
L 1159 2969 
Q 1341 3281 1617 3432 
Q 1894 3584 2278 3584 
Q 2916 3584 3314 3078 
Q 3713 2572 3713 1747 
Q 3713 922 3314 415 
Q 2916 -91 2278 -91 
Q 1894 -91 1617 61 
Q 1341 213 1159 525 
z
M 3116 1747 
Q 3116 2381 2855 2742 
Q 2594 3103 2138 3103 
Q 1681 3103 1420 2742 
Q 1159 2381 1159 1747 
Q 1159 1113 1420 752 
Q 1681 391 2138 391 
Q 2594 391 2855 752 
Q 3116 1113 3116 1747 
z
" transform="scale(0.015625)"/>
      <path id="DejaVuSans-72" d="M 2631 2963 
Q 2534 3019 2420 3045 
Q 2306 3072 2169 3072 
Q 1681 3072 1420 2755 
Q 1159 2438 1159 1844 
L 1159 0 
L 581 0 
L 581 3500 
L 1159 3500 
L 1159 2956 
Q 1341 3275 1631 3429 
Q 1922 3584 2338 3584 
Q 2397 3584 2469 3576 
Q 2541 3569 2628 3553 
L 2631 2963 
z
" transform="scale(0.015625)"/>
      <path id="DejaVuSans-66" d="M 2375 4863 
L 2375 4384 
L 1825 4384 
Q 1516 4384 1395 4259 
Q 1275 4134 1275 3809 
L 1275 3500 
L 2222 3500 
L 2222 3053 
L 1275 3053 
L 1275 0 
L 697 0 
L 697 3053 
L 147 3053 
L 147 3500 
L 697 3500 
L 697 3744 
Q 697 4328 969 4595 
Q 1241 4863 1831 4863 
L 2375 4863 
z
" transform="scale(0.015625)"/>
      <path id="DejaVuSans-6f" d="M 1959 3097 
Q 1497 3097 1228 2736 
Q 959 2375 959 1747 
Q 959 1119 1226 758 
Q 1494 397 1959 397 
Q 2419 397 2687 759 
Q 2956 1122 2956 1747 
Q 2956 2369 2687 2733 
Q 2419 3097 1959 3097 
z
M 1959 3584 
Q 2709 3584 3137 3096 
Q 3566 2609 3566 1747 
Q 3566 888 3137 398 
Q 2709 -91 1959 -91 
Q 1206 -91 779 398 
Q 353 888 353 1747 
Q 353 2609 779 3096 
Q 1206 3584 1959 3584 
z
" transform="scale(0.015625)"/>
      <path id="DejaVuSans-6d" d="M 3328 2828 
Q 3544 3216 3844 3400 
Q 4144 3584 4550 3584 
Q 5097 3584 5394 3201 
Q 5691 2819 5691 2113 
L 5691 0 
L 5113 0 
L 5113 2094 
Q 5113 2597 4934 2840 
Q 4756 3084 4391 3084 
Q 3944 3084 3684 2787 
Q 3425 2491 3425 1978 
L 3425 0 
L 2847 0 
L 2847 2094 
Q 2847 2600 2669 2842 
Q 2491 3084 2119 3084 
Q 1678 3084 1418 2786 
Q 1159 2488 1159 1978 
L 1159 0 
L 581 0 
L 581 3500 
L 1159 3500 
L 1159 2956 
Q 1356 3278 1631 3431 
Q 1906 3584 2284 3584 
Q 2666 3584 2933 3390 
Q 3200 3197 3328 2828 
z
" transform="scale(0.015625)"/>
      <path id="DejaVuSans-6e" d="M 3513 2113 
L 3513 0 
L 2938 0 
L 2938 2094 
Q 2938 2591 2744 2837 
Q 2550 3084 2163 3084 
Q 1697 3084 1428 2787 
Q 1159 2491 1159 1978 
L 1159 0 
L 581 0 
L 581 3500 
L 1159 3500 
L 1159 2956 
Q 1366 3272 1645 3428 
Q 1925 3584 2291 3584 
Q 2894 3584 3203 3211 
Q 3513 2838 3513 2113 
z
" transform="scale(0.015625)"/>
      <path id="DejaVuSans-63" d="M 3122 3366 
L 3122 2828 
Q 2878 2963 2633 3030 
Q 2388 3097 2138 3097 
Q 1578 3097 1268 2742 
Q 959 2388 959 1747 
Q 959 1106 1268 751 
Q 1578 397 2138 397 
Q 2388 397 2633 464 
Q 2878 531 3122 666 
L 3122 134 
Q 2881 22 2623 -34 
Q 2366 -91 2075 -91 
Q 1284 -91 818 406 
Q 353 903 353 1747 
Q 353 2603 823 3093 
Q 1294 3584 2113 3584 
Q 2378 3584 2631 3529 
Q 2884 3475 3122 3366 
z
" transform="scale(0.015625)"/>
      <path id="DejaVuSans-64" d="M 2906 2969 
L 2906 4863 
L 3481 4863 
L 3481 0 
L 2906 0 
L 2906 525 
Q 2725 213 2448 61 
Q 2172 -91 1784 -91 
Q 1150 -91 751 415 
Q 353 922 353 1747 
Q 353 2572 751 3078 
Q 1150 3584 1784 3584 
Q 2172 3584 2448 3432 
Q 2725 3281 2906 2969 
z
M 947 1747 
Q 947 1113 1208 752 
Q 1469 391 1925 391 
Q 2381 391 2643 752 
Q 2906 1113 2906 1747 
Q 2906 2381 2643 2742 
Q 2381 3103 1925 3103 
Q 1469 3103 1208 2742 
Q 947 2381 947 1747 
z
" transform="scale(0.015625)"/>
      <path id="DejaVuSans-69" d="M 603 3500 
L 1178 3500 
L 1178 0 
L 603 0 
L 603 3500 
z
M 603 4863 
L 1178 4863 
L 1178 4134 
L 603 4134 
L 603 4863 
z
" transform="scale(0.015625)"/>
      <path id="DejaVuSans-73" d="M 2834 3397 
L 2834 2853 
Q 2591 2978 2328 3040 
Q 2066 3103 1784 3103 
Q 1356 3103 1142 2972 
Q 928 2841 928 2578 
Q 928 2378 1081 2264 
Q 1234 2150 1697 2047 
L 1894 2003 
Q 2506 1872 2764 1633 
Q 3022 1394 3022 966 
Q 3022 478 2636 193 
Q 2250 -91 1575 -91 
Q 1294 -91 989 -36 
Q 684 19 347 128 
L 347 722 
Q 666 556 975 473 
Q 1284 391 1588 391 
Q 1994 391 2212 530 
Q 2431 669 2431 922 
Q 2431 1156 2273 1281 
Q 2116 1406 1581 1522 
L 1381 1569 
Q 847 1681 609 1914 
Q 372 2147 372 2553 
Q 372 3047 722 3315 
Q 1072 3584 1716 3584 
Q 2034 3584 2315 3537 
Q 2597 3491 2834 3397 
z
" transform="scale(0.015625)"/>
      <path id="DejaVuSans-74" d="M 1172 4494 
L 1172 3500 
L 2356 3500 
L 2356 3053 
L 1172 3053 
L 1172 1153 
Q 1172 725 1289 603 
Q 1406 481 1766 481 
L 2356 481 
L 2356 0 
L 1766 0 
Q 1100 0 847 248 
Q 594 497 594 1153 
L 594 3053 
L 172 3053 
L 172 3500 
L 594 3500 
L 594 4494 
L 1172 4494 
z
" transform="scale(0.015625)"/>
      <path id="DejaVuSans-62" d="M 3116 1747 
Q 3116 2381 2855 2742 
Q 2594 3103 2138 3103 
Q 1681 3103 1420 2742 
Q 1159 2381 1159 1747 
Q 1159 1113 1420 752 
Q 1681 391 2138 391 
Q 2594 391 2855 752 
Q 3116 1113 3116 1747 
z
M 1159 2969 
Q 1341 3281 1617 3432 
Q 1894 3584 2278 3584 
Q 2916 3584 3314 3078 
Q 3713 2572 3713 1747 
Q 3713 922 3314 415 
Q 2916 -91 2278 -91 
Q 1894 -91 1617 61 
Q 1341 213 1159 525 
L 1159 0 
L 581 0 
L 581 4863 
L 1159 4863 
L 1159 2969 
z
" transform="scale(0.015625)"/>
      <path id="DejaVuSans-75" d="M 544 1381 
L 544 3500 
L 1119 3500 
L 1119 1403 
Q 1119 906 1312 657 
Q 1506 409 1894 409 
Q 2359 409 2629 706 
Q 2900 1003 2900 1516 
L 2900 3500 
L 3475 3500 
L 3475 0 
L 2900 0 
L 2900 538 
Q 2691 219 2414 64 
Q 2138 -91 1772 -91 
Q 1169 -91 856 284 
Q 544 659 544 1381 
z
M 1991 3584 
L 1991 3584 
z
" transform="scale(0.015625)"/>
     </defs>
     <use xlink:href="#DejaVuSans-50"/>
     <use xlink:href="#DejaVuSans-65" x="56.677734"/>
     <use xlink:href="#DejaVuSans-61" x="118.201172"/>
     <use xlink:href="#DejaVuSans-6b" x="179.480469"/>
     <use xlink:href="#DejaVuSans-20" x="237.390625"/>
     <use xlink:href="#DejaVuSans-70" x="269.177734"/>
     <use xlink:href="#DejaVuSans-65" x="332.654297"/>
     <use xlink:href="#DejaVuSans-72" x="394.177734"/>
     <use xlink:href="#DejaVuSans-66" x="435.291016"/>
     <use xlink:href="#DejaVuSans-6f" x="470.496094"/>
     <use xlink:href="#DejaVuSans-72" x="531.677734"/>
     <use xlink:href="#DejaVuSans-6d" x="571.041016"/>
     <use xlink:href="#DejaVuSans-61" x="668.453125"/>
     <use xlink:href="#DejaVuSans-6e" x="729.732422"/>
     <use xlink:href="#DejaVuSans-63" x="793.111328"/>
     <use xlink:href="#DejaVuSans-65" x="848.091797"/>
     <use xlink:href="#DejaVuSans-20" x="909.615234"/>
     <use xlink:href="#DejaVuSans-64" x="941.402344"/>
     <use xlink:href="#DejaVuSans-69" x="1004.878906"/>
     <use xlink:href="#DejaVuSans-73" x="1032.662109"/>
     <use xlink:href="#DejaVuSans-74" x="1084.761719"/>
     <use xlink:href="#DejaVuSans-72" x="1123.970703"/>
     <use xlink:href="#DejaVuSans-69" x="1165.083984"/>
     <use xlink:href="#DejaVuSans-62" x="1192.867188"/>
     <use xlink:href="#DejaVuSans-75" x="1256.34375"/>
     <use xlink:href="#DejaVuSans-74" x="1319.722656"/>
     <use xlink:href="#DejaVuSans-69" x="1358.931641"/>
     <use xlink:href="#DejaVuSans-6f" x="1386.714844"/>
     <use xlink:href="#DejaVuSans-6e" x="1447.896484"/>
    </g>
   </g>
   <g id="legend_1">
    <g id="patch_10">
     <path d="M 659.593312 138.459975 
L 711.848 138.459975 
Q 713.848 138.459975 713.848 136.459975 
L 713.848 93.4256 
Q 713.848 91.4256 711.848 91.4256 
L 659.593312 91.4256 
Q 657.593312 91.4256 657.593312 93.4256 
L 657.593312 136.459975 
Q 657.593312 138.459975 659.593312 138.459975 
z
" style="fill: #ffffff; opacity: 0.8; stroke: #cccccc; stroke-linejoin: miter"/>
    </g>
    <g id="patch_11">
     <path d="M 661.593312 103.024037 
L 681.593312 103.024037 
L 681.593312 96.024037 
L 661.593312 96.024037 
L 661.593312 103.024037 
z
" style="fill: none; opacity: 0.8; stroke: #1f77b4; stroke-linejoin: miter"/>
    </g>
    <g id="text_15">
     <!-- tvm -->
     <g transform="translate(689.593312 103.024037) scale(0.1 -0.1)">
      <defs>
       <path id="DejaVuSans-76" d="M 191 3500 
L 800 3500 
L 1894 563 
L 2988 3500 
L 3597 3500 
L 2284 0 
L 1503 0 
L 191 3500 
z
" transform="scale(0.015625)"/>
      </defs>
      <use xlink:href="#DejaVuSans-74"/>
      <use xlink:href="#DejaVuSans-76" x="39.208984"/>
      <use xlink:href="#DejaVuSans-6d" x="98.388672"/>
     </g>
    </g>
    <g id="patch_12">
     <path d="M 661.593312 117.702162 
L 681.593312 117.702162 
L 681.593312 110.702162 
L 661.593312 110.702162 
L 661.593312 117.702162 
z
" style="fill: none; opacity: 0.8; stroke: #ff7f0e; stroke-linejoin: miter"/>
    </g>
    <g id="text_16">
     <!-- xdsl -->
     <g transform="translate(689.593312 117.702162) scale(0.1 -0.1)">
      <defs>
       <path id="DejaVuSans-78" d="M 3513 3500 
L 2247 1797 
L 3578 0 
L 2900 0 
L 1881 1375 
L 863 0 
L 184 0 
L 1544 1831 
L 300 3500 
L 978 3500 
L 1906 2253 
L 2834 3500 
L 3513 3500 
z
" transform="scale(0.015625)"/>
       <path id="DejaVuSans-6c" d="M 603 4863 
L 1178 4863 
L 1178 0 
L 603 0 
L 603 4863 
z
" transform="scale(0.015625)"/>
      </defs>
      <use xlink:href="#DejaVuSans-78"/>
      <use xlink:href="#DejaVuSans-64" x="59.179688"/>
      <use xlink:href="#DejaVuSans-73" x="122.65625"/>
      <use xlink:href="#DejaVuSans-6c" x="174.755859"/>
     </g>
    </g>
    <g id="patch_13">
     <path d="M 661.593312 132.380288 
L 681.593312 132.380288 
L 681.593312 125.380288 
L 661.593312 125.380288 
L 661.593312 132.380288 
z
" style="fill: none; opacity: 0.8; stroke: #2ca02c; stroke-linejoin: miter"/>
    </g>
    <g id="text_17">
     <!-- mlir -->
     <g transform="translate(689.593312 132.380288) scale(0.1 -0.1)">
      <use xlink:href="#DejaVuSans-6d"/>
      <use xlink:href="#DejaVuSans-6c" x="97.412109"/>
      <use xlink:href="#DejaVuSans-69" x="125.195312"/>
      <use xlink:href="#DejaVuSans-72" x="152.978516"/>
     </g>
    </g>
   </g>
  </g>
  <g id="axes_2">
   <g id="patch_14">
    <path d="M 62.788267 689.698133 
L 718.848 689.698133 
L 718.848 425.5744 
L 62.788267 425.5744 
z
" style="fill: #ffffff"/>
   </g>
   <g id="matplotlib.axis_3">
    <g id="xtick_6">
     <g id="line2d_14">
      <g>
       <use xlink:href="#m037403708e" x="91.948042" y="689.698133" style="stroke: #000000; stroke-width: 0.8"/>
      </g>
     </g>
     <g id="text_18">
      <!-- 0.0 -->
      <g transform="translate(83.99648 704.296571) scale(0.1 -0.1)">
       <use xlink:href="#DejaVuSans-30"/>
       <use xlink:href="#DejaVuSans-2e" x="63.623047"/>
       <use xlink:href="#DejaVuSans-30" x="95.410156"/>
      </g>
     </g>
    </g>
    <g id="xtick_7">
     <g id="line2d_15">
      <g>
       <use xlink:href="#m037403708e" x="233.880411" y="689.698133" style="stroke: #000000; stroke-width: 0.8"/>
      </g>
     </g>
     <g id="text_19">
      <!-- 0.2 -->
      <g transform="translate(225.928849 704.296571) scale(0.1 -0.1)">
       <use xlink:href="#DejaVuSans-30"/>
       <use xlink:href="#DejaVuSans-2e" x="63.623047"/>
       <use xlink:href="#DejaVuSans-32" x="95.410156"/>
      </g>
     </g>
    </g>
    <g id="xtick_8">
     <g id="line2d_16">
      <g>
       <use xlink:href="#m037403708e" x="375.812781" y="689.698133" style="stroke: #000000; stroke-width: 0.8"/>
      </g>
     </g>
     <g id="text_20">
      <!-- 0.4 -->
      <g transform="translate(367.861218 704.296571) scale(0.1 -0.1)">
       <use xlink:href="#DejaVuSans-30"/>
       <use xlink:href="#DejaVuSans-2e" x="63.623047"/>
       <use xlink:href="#DejaVuSans-34" x="95.410156"/>
      </g>
     </g>
    </g>
    <g id="xtick_9">
     <g id="line2d_17">
      <g>
       <use xlink:href="#m037403708e" x="517.74515" y="689.698133" style="stroke: #000000; stroke-width: 0.8"/>
      </g>
     </g>
     <g id="text_21">
      <!-- 0.6 -->
      <g transform="translate(509.793587 704.296571) scale(0.1 -0.1)">
       <use xlink:href="#DejaVuSans-30"/>
       <use xlink:href="#DejaVuSans-2e" x="63.623047"/>
       <use xlink:href="#DejaVuSans-36" x="95.410156"/>
      </g>
     </g>
    </g>
    <g id="xtick_10">
     <g id="line2d_18">
      <g>
       <use xlink:href="#m037403708e" x="659.677519" y="689.698133" style="stroke: #000000; stroke-width: 0.8"/>
      </g>
     </g>
     <g id="text_22">
      <!-- 0.8 -->
      <g transform="translate(651.725956 704.296571) scale(0.1 -0.1)">
       <use xlink:href="#DejaVuSans-30"/>
       <use xlink:href="#DejaVuSans-2e" x="63.623047"/>
       <use xlink:href="#DejaVuSans-38" x="95.410156"/>
      </g>
     </g>
    </g>
   </g>
   <g id="matplotlib.axis_4">
    <g id="ytick_9">
     <g id="line2d_19">
      <g>
       <use xlink:href="#m912813fcea" x="62.788267" y="689.698133" style="stroke: #000000; stroke-width: 0.8"/>
      </g>
     </g>
     <g id="text_23">
      <!-- 0.0 -->
      <g transform="translate(39.885142 693.497352) scale(0.1 -0.1)">
       <use xlink:href="#DejaVuSans-30"/>
       <use xlink:href="#DejaVuSans-2e" x="63.623047"/>
       <use xlink:href="#DejaVuSans-30" x="95.410156"/>
      </g>
     </g>
    </g>
    <g id="ytick_10">
     <g id="line2d_20">
      <g>
       <use xlink:href="#m912813fcea" x="62.788267" y="639.388851" style="stroke: #000000; stroke-width: 0.8"/>
      </g>
     </g>
     <g id="text_24">
      <!-- 0.2 -->
      <g transform="translate(39.885142 643.18807) scale(0.1 -0.1)">
       <use xlink:href="#DejaVuSans-30"/>
       <use xlink:href="#DejaVuSans-2e" x="63.623047"/>
       <use xlink:href="#DejaVuSans-32" x="95.410156"/>
      </g>
     </g>
    </g>
    <g id="ytick_11">
     <g id="line2d_21">
      <g>
       <use xlink:href="#m912813fcea" x="62.788267" y="589.079568" style="stroke: #000000; stroke-width: 0.8"/>
      </g>
     </g>
     <g id="text_25">
      <!-- 0.4 -->
      <g transform="translate(39.885142 592.878787) scale(0.1 -0.1)">
       <use xlink:href="#DejaVuSans-30"/>
       <use xlink:href="#DejaVuSans-2e" x="63.623047"/>
       <use xlink:href="#DejaVuSans-34" x="95.410156"/>
      </g>
     </g>
    </g>
    <g id="ytick_12">
     <g id="line2d_22">
      <g>
       <use xlink:href="#m912813fcea" x="62.788267" y="538.770286" style="stroke: #000000; stroke-width: 0.8"/>
      </g>
     </g>
     <g id="text_26">
      <!-- 0.6 -->
      <g transform="translate(39.885142 542.569504) scale(0.1 -0.1)">
       <use xlink:href="#DejaVuSans-30"/>
       <use xlink:href="#DejaVuSans-2e" x="63.623047"/>
       <use xlink:href="#DejaVuSans-36" x="95.410156"/>
      </g>
     </g>
    </g>
    <g id="ytick_13">
     <g id="line2d_23">
      <g>
       <use xlink:href="#m912813fcea" x="62.788267" y="488.461003" style="stroke: #000000; stroke-width: 0.8"/>
      </g>
     </g>
     <g id="text_27">
      <!-- 0.8 -->
      <g transform="translate(39.885142 492.260222) scale(0.1 -0.1)">
       <use xlink:href="#DejaVuSans-30"/>
       <use xlink:href="#DejaVuSans-2e" x="63.623047"/>
       <use xlink:href="#DejaVuSans-38" x="95.410156"/>
      </g>
     </g>
    </g>
    <g id="ytick_14">
     <g id="line2d_24">
      <g>
       <use xlink:href="#m912813fcea" x="62.788267" y="438.151721" style="stroke: #000000; stroke-width: 0.8"/>
      </g>
     </g>
     <g id="text_28">
      <!-- 1.0 -->
      <g transform="translate(39.885142 441.950939) scale(0.1 -0.1)">
       <use xlink:href="#DejaVuSans-31"/>
       <use xlink:href="#DejaVuSans-2e" x="63.623047"/>
       <use xlink:href="#DejaVuSans-30" x="95.410156"/>
      </g>
     </g>
    </g>
   </g>
   <g id="patch_15">
    <path d="M 125.815026 689.698133 
L 125.815026 676.841317 
L 153.97563 676.841317 
L 153.97563 667.338452 
L 182.136233 667.338452 
L 182.136233 646.655747 
L 210.296837 646.655747 
L 210.296837 616.470178 
L 238.457441 616.470178 
L 238.457441 597.464449 
L 266.618045 597.464449 
L 266.618045 558.893999 
L 294.778649 558.893999 
L 294.778649 548.27315 
L 322.939253 548.27315 
L 322.939253 522.000525 
L 351.099857 522.000525 
L 351.099857 518.087581 
L 379.260461 518.087581 
L 379.260461 513.615644 
L 407.421064 513.615644 
L 407.421064 499.640844 
L 435.581668 499.640844 
L 435.581668 492.932939 
L 463.742272 492.932939 
L 463.742272 489.019995 
L 491.902876 489.019995 
L 491.902876 477.840155 
L 520.06348 477.840155 
L 520.06348 462.74737 
L 548.224084 462.74737 
L 548.224084 456.039466 
L 576.384688 456.039466 
L 576.384688 451.008537 
L 604.545291 451.008537 
L 604.545291 447.654585 
L 632.705895 447.654585 
L 632.705895 445.977609 
L 660.866499 445.977609 
L 660.866499 438.151721 
L 689.027103 438.151721 
L 689.027103 689.698133 
" clip-path="url(#p3c815dcbac)" style="fill: none; opacity: 0.8; stroke: #1f77b4; stroke-linejoin: miter"/>
   </g>
   <g id="patch_16">
    <path d="M 92.609164 689.698133 
L 92.609164 585.725616 
L 113.717657 585.725616 
L 113.717657 569.514847 
L 134.82615 569.514847 
L 134.82615 561.688959 
L 155.934644 561.688959 
L 155.934644 549.391134 
L 177.043137 549.391134 
L 177.043137 539.329278 
L 198.15163 539.329278 
L 198.15163 529.267421 
L 219.260124 529.267421 
L 219.260124 515.292621 
L 240.368617 515.292621 
L 240.368617 491.814955 
L 261.47711 491.814955 
L 261.47711 481.194107 
L 282.585604 481.194107 
L 282.585604 475.045194 
L 303.694097 475.045194 
L 303.694097 468.33729 
L 324.802591 468.33729 
L 324.802591 462.74737 
L 345.911084 462.74737 
L 345.911084 459.393418 
L 367.019577 459.393418 
L 367.019577 453.244505 
L 388.128071 453.244505 
L 388.128071 447.095593 
L 409.236564 447.095593 
L 409.236564 442.064665 
L 430.345057 442.064665 
L 430.345057 440.946681 
L 451.453551 440.946681 
L 451.453551 439.269705 
L 472.562044 439.269705 
L 472.562044 439.269705 
L 493.670537 439.269705 
L 493.670537 438.151721 
L 514.779031 438.151721 
L 514.779031 689.698133 
" clip-path="url(#p3c815dcbac)" style="fill: none; opacity: 0.8; stroke: #ff7f0e; stroke-linejoin: miter"/>
   </g>
   <g id="patch_17">
    <path d="M 116.307164 689.698133 
L 116.307164 680.754261 
L 137.232383 680.754261 
L 137.232383 661.748532 
L 158.157602 661.748532 
L 158.157602 637.152883 
L 179.082821 637.152883 
L 179.082821 591.874528 
L 200.008041 591.874528 
L 200.008041 548.27315 
L 220.93326 548.27315 
L 220.93326 532.062381 
L 241.858479 532.062381 
L 241.858479 511.938668 
L 262.783698 511.938668 
L 262.783698 494.609915 
L 283.708917 494.609915 
L 283.708917 483.989067 
L 304.634136 483.989067 
L 304.634136 475.045194 
L 325.559355 475.045194 
L 325.559355 468.33729 
L 346.484574 468.33729 
L 346.484574 460.511402 
L 367.409794 460.511402 
L 367.409794 453.244505 
L 388.335013 453.244505 
L 388.335013 448.213577 
L 409.260232 448.213577 
L 409.260232 442.064665 
L 430.185451 442.064665 
L 430.185451 440.946681 
L 451.11067 440.946681 
L 451.11067 440.387689 
L 472.035889 440.387689 
L 472.035889 440.387689 
L 492.961108 440.387689 
L 492.961108 439.269705 
L 513.886328 439.269705 
L 513.886328 438.151721 
L 534.811547 438.151721 
L 534.811547 689.698133 
" clip-path="url(#p3c815dcbac)" style="fill: none; opacity: 0.8; stroke: #2ca02c; stroke-linejoin: miter"/>
   </g>
   <g id="patch_18">
    <path d="M 62.788267 689.698133 
L 62.788267 425.5744 
" style="fill: none; stroke: #000000; stroke-width: 0.8; stroke-linejoin: miter; stroke-linecap: square"/>
   </g>
   <g id="patch_19">
    <path d="M 718.848 689.698133 
L 718.848 425.5744 
" style="fill: none; stroke: #000000; stroke-width: 0.8; stroke-linejoin: miter; stroke-linecap: square"/>
   </g>
   <g id="patch_20">
    <path d="M 62.788267 689.698133 
L 718.848 689.698133 
" style="fill: none; stroke: #000000; stroke-width: 0.8; stroke-linejoin: miter; stroke-linecap: square"/>
   </g>
   <g id="patch_21">
    <path d="M 62.788267 425.5744 
L 718.848 425.5744 
" style="fill: none; stroke: #000000; stroke-width: 0.8; stroke-linejoin: miter; stroke-linecap: square"/>
   </g>
   <g id="text_29">
    <!-- Peak performance cumulative distribution -->
    <g transform="translate(264.880946 419.5744) scale(0.12 -0.12)">
     <use xlink:href="#DejaVuSans-50"/>
     <use xlink:href="#DejaVuSans-65" x="56.677734"/>
     <use xlink:href="#DejaVuSans-61" x="118.201172"/>
     <use xlink:href="#DejaVuSans-6b" x="179.480469"/>
     <use xlink:href="#DejaVuSans-20" x="237.390625"/>
     <use xlink:href="#DejaVuSans-70" x="269.177734"/>
     <use xlink:href="#DejaVuSans-65" x="332.654297"/>
     <use xlink:href="#DejaVuSans-72" x="394.177734"/>
     <use xlink:href="#DejaVuSans-66" x="435.291016"/>
     <use xlink:href="#DejaVuSans-6f" x="470.496094"/>
     <use xlink:href="#DejaVuSans-72" x="531.677734"/>
     <use xlink:href="#DejaVuSans-6d" x="571.041016"/>
     <use xlink:href="#DejaVuSans-61" x="668.453125"/>
     <use xlink:href="#DejaVuSans-6e" x="729.732422"/>
     <use xlink:href="#DejaVuSans-63" x="793.111328"/>
     <use xlink:href="#DejaVuSans-65" x="848.091797"/>
     <use xlink:href="#DejaVuSans-20" x="909.615234"/>
     <use xlink:href="#DejaVuSans-63" x="941.402344"/>
     <use xlink:href="#DejaVuSans-75" x="996.382812"/>
     <use xlink:href="#DejaVuSans-6d" x="1059.761719"/>
     <use xlink:href="#DejaVuSans-75" x="1157.173828"/>
     <use xlink:href="#DejaVuSans-6c" x="1220.552734"/>
     <use xlink:href="#DejaVuSans-61" x="1248.335938"/>
     <use xlink:href="#DejaVuSans-74" x="1309.615234"/>
     <use xlink:href="#DejaVuSans-69" x="1348.824219"/>
     <use xlink:href="#DejaVuSans-76" x="1376.607422"/>
     <use xlink:href="#DejaVuSans-65" x="1435.787109"/>
     <use xlink:href="#DejaVuSans-20" x="1497.310547"/>
     <use xlink:href="#DejaVuSans-64" x="1529.097656"/>
     <use xlink:href="#DejaVuSans-69" x="1592.574219"/>
     <use xlink:href="#DejaVuSans-73" x="1620.357422"/>
     <use xlink:href="#DejaVuSans-74" x="1672.457031"/>
     <use xlink:href="#DejaVuSans-72" x="1711.666016"/>
     <use xlink:href="#DejaVuSans-69" x="1752.779297"/>
     <use xlink:href="#DejaVuSans-62" x="1780.5625"/>
     <use xlink:href="#DejaVuSans-75" x="1844.039062"/>
     <use xlink:href="#DejaVuSans-74" x="1907.417969"/>
     <use xlink:href="#DejaVuSans-69" x="1946.626953"/>
     <use xlink:href="#DejaVuSans-6f" x="1974.410156"/>
     <use xlink:href="#DejaVuSans-6e" x="2035.591797"/>
    </g>
   </g>
   <g id="legend_2">
    <g id="patch_22">
     <path d="M 69.788267 477.608775 
L 122.042954 477.608775 
Q 124.042954 477.608775 124.042954 475.608775 
L 124.042954 432.5744 
Q 124.042954 430.5744 122.042954 430.5744 
L 69.788267 430.5744 
Q 67.788267 430.5744 67.788267 432.5744 
L 67.788267 475.608775 
Q 67.788267 477.608775 69.788267 477.608775 
z
" style="fill: #ffffff; opacity: 0.8; stroke: #cccccc; stroke-linejoin: miter"/>
    </g>
    <g id="patch_23">
     <path d="M 71.788267 442.172838 
L 91.788267 442.172838 
L 91.788267 435.172838 
L 71.788267 435.172838 
L 71.788267 442.172838 
z
" style="fill: none; opacity: 0.8; stroke: #1f77b4; stroke-linejoin: miter"/>
    </g>
    <g id="text_30">
     <!-- tvm -->
     <g transform="translate(99.788267 442.172838) scale(0.1 -0.1)">
      <use xlink:href="#DejaVuSans-74"/>
      <use xlink:href="#DejaVuSans-76" x="39.208984"/>
      <use xlink:href="#DejaVuSans-6d" x="98.388672"/>
     </g>
    </g>
    <g id="patch_24">
     <path d="M 71.788267 456.850963 
L 91.788267 456.850963 
L 91.788267 449.850963 
L 71.788267 449.850963 
L 71.788267 456.850963 
z
" style="fill: none; opacity: 0.8; stroke: #ff7f0e; stroke-linejoin: miter"/>
    </g>
    <g id="text_31">
     <!-- xdsl -->
     <g transform="translate(99.788267 456.850963) scale(0.1 -0.1)">
      <use xlink:href="#DejaVuSans-78"/>
      <use xlink:href="#DejaVuSans-64" x="59.179688"/>
      <use xlink:href="#DejaVuSans-73" x="122.65625"/>
      <use xlink:href="#DejaVuSans-6c" x="174.755859"/>
     </g>
    </g>
    <g id="patch_25">
     <path d="M 71.788267 471.529088 
L 91.788267 471.529088 
L 91.788267 464.529088 
L 71.788267 464.529088 
L 71.788267 471.529088 
z
" style="fill: none; opacity: 0.8; stroke: #2ca02c; stroke-linejoin: miter"/>
    </g>
    <g id="text_32">
     <!-- mlir -->
     <g transform="translate(99.788267 471.529088) scale(0.1 -0.1)">
      <use xlink:href="#DejaVuSans-6d"/>
      <use xlink:href="#DejaVuSans-6c" x="97.412109"/>
      <use xlink:href="#DejaVuSans-69" x="125.195312"/>
      <use xlink:href="#DejaVuSans-72" x="152.978516"/>
     </g>
    </g>
   </g>
  </g>
  <g id="text_33">
   <!-- Exhaustive 1-level tiling + reorder (i,j,k, order) of 256x256x512 vectorized matmul -->
   <g transform="translate(119.301562 23.863725) scale(0.12 -0.12)">
    <defs>
     <path id="DejaVuSans-45" d="M 628 4666 
L 3578 4666 
L 3578 4134 
L 1259 4134 
L 1259 2753 
L 3481 2753 
L 3481 2222 
L 1259 2222 
L 1259 531 
L 3634 531 
L 3634 0 
L 628 0 
L 628 4666 
z
" transform="scale(0.015625)"/>
     <path id="DejaVuSans-68" d="M 3513 2113 
L 3513 0 
L 2938 0 
L 2938 2094 
Q 2938 2591 2744 2837 
Q 2550 3084 2163 3084 
Q 1697 3084 1428 2787 
Q 1159 2491 1159 1978 
L 1159 0 
L 581 0 
L 581 4863 
L 1159 4863 
L 1159 2956 
Q 1366 3272 1645 3428 
Q 1925 3584 2291 3584 
Q 2894 3584 3203 3211 
Q 3513 2838 3513 2113 
z
" transform="scale(0.015625)"/>
     <path id="DejaVuSans-2d" d="M 313 2009 
L 1997 2009 
L 1997 1497 
L 313 1497 
L 313 2009 
z
" transform="scale(0.015625)"/>
     <path id="DejaVuSans-67" d="M 2906 1791 
Q 2906 2416 2648 2759 
Q 2391 3103 1925 3103 
Q 1463 3103 1205 2759 
Q 947 2416 947 1791 
Q 947 1169 1205 825 
Q 1463 481 1925 481 
Q 2391 481 2648 825 
Q 2906 1169 2906 1791 
z
M 3481 434 
Q 3481 -459 3084 -895 
Q 2688 -1331 1869 -1331 
Q 1566 -1331 1297 -1286 
Q 1028 -1241 775 -1147 
L 775 -588 
Q 1028 -725 1275 -790 
Q 1522 -856 1778 -856 
Q 2344 -856 2625 -561 
Q 2906 -266 2906 331 
L 2906 616 
Q 2728 306 2450 153 
Q 2172 0 1784 0 
Q 1141 0 747 490 
Q 353 981 353 1791 
Q 353 2603 747 3093 
Q 1141 3584 1784 3584 
Q 2172 3584 2450 3431 
Q 2728 3278 2906 2969 
L 2906 3500 
L 3481 3500 
L 3481 434 
z
" transform="scale(0.015625)"/>
     <path id="DejaVuSans-2b" d="M 2944 4013 
L 2944 2272 
L 4684 2272 
L 4684 1741 
L 2944 1741 
L 2944 0 
L 2419 0 
L 2419 1741 
L 678 1741 
L 678 2272 
L 2419 2272 
L 2419 4013 
L 2944 4013 
z
" transform="scale(0.015625)"/>
     <path id="DejaVuSans-28" d="M 1984 4856 
Q 1566 4138 1362 3434 
Q 1159 2731 1159 2009 
Q 1159 1288 1364 580 
Q 1569 -128 1984 -844 
L 1484 -844 
Q 1016 -109 783 600 
Q 550 1309 550 2009 
Q 550 2706 781 3412 
Q 1013 4119 1484 4856 
L 1984 4856 
z
" transform="scale(0.015625)"/>
     <path id="DejaVuSans-2c" d="M 750 794 
L 1409 794 
L 1409 256 
L 897 -744 
L 494 -744 
L 750 256 
L 750 794 
z
" transform="scale(0.015625)"/>
     <path id="DejaVuSans-6a" d="M 603 3500 
L 1178 3500 
L 1178 -63 
Q 1178 -731 923 -1031 
Q 669 -1331 103 -1331 
L -116 -1331 
L -116 -844 
L 38 -844 
Q 366 -844 484 -692 
Q 603 -541 603 -63 
L 603 3500 
z
M 603 4863 
L 1178 4863 
L 1178 4134 
L 603 4134 
L 603 4863 
z
" transform="scale(0.015625)"/>
     <path id="DejaVuSans-29" d="M 513 4856 
L 1013 4856 
Q 1481 4119 1714 3412 
Q 1947 2706 1947 2009 
Q 1947 1309 1714 600 
Q 1481 -109 1013 -844 
L 513 -844 
Q 928 -128 1133 580 
Q 1338 1288 1338 2009 
Q 1338 2731 1133 3434 
Q 928 4138 513 4856 
z
" transform="scale(0.015625)"/>
     <path id="DejaVuSans-7a" d="M 353 3500 
L 3084 3500 
L 3084 2975 
L 922 459 
L 3084 459 
L 3084 0 
L 275 0 
L 275 525 
L 2438 3041 
L 353 3041 
L 353 3500 
z
" transform="scale(0.015625)"/>
    </defs>
    <use xlink:href="#DejaVuSans-45"/>
    <use xlink:href="#DejaVuSans-78" x="63.183594"/>
    <use xlink:href="#DejaVuSans-68" x="122.363281"/>
    <use xlink:href="#DejaVuSans-61" x="185.742188"/>
    <use xlink:href="#DejaVuSans-75" x="247.021484"/>
    <use xlink:href="#DejaVuSans-73" x="310.400391"/>
    <use xlink:href="#DejaVuSans-74" x="362.5"/>
    <use xlink:href="#DejaVuSans-69" x="401.708984"/>
    <use xlink:href="#DejaVuSans-76" x="429.492188"/>
    <use xlink:href="#DejaVuSans-65" x="488.671875"/>
    <use xlink:href="#DejaVuSans-20" x="550.195312"/>
    <use xlink:href="#DejaVuSans-31" x="581.982422"/>
    <use xlink:href="#DejaVuSans-2d" x="645.605469"/>
    <use xlink:href="#DejaVuSans-6c" x="681.689453"/>
    <use xlink:href="#DejaVuSans-65" x="709.472656"/>
    <use xlink:href="#DejaVuSans-76" x="770.996094"/>
    <use xlink:href="#DejaVuSans-65" x="830.175781"/>
    <use xlink:href="#DejaVuSans-6c" x="891.699219"/>
    <use xlink:href="#DejaVuSans-20" x="919.482422"/>
    <use xlink:href="#DejaVuSans-74" x="951.269531"/>
    <use xlink:href="#DejaVuSans-69" x="990.478516"/>
    <use xlink:href="#DejaVuSans-6c" x="1018.261719"/>
    <use xlink:href="#DejaVuSans-69" x="1046.044922"/>
    <use xlink:href="#DejaVuSans-6e" x="1073.828125"/>
    <use xlink:href="#DejaVuSans-67" x="1137.207031"/>
    <use xlink:href="#DejaVuSans-20" x="1200.683594"/>
    <use xlink:href="#DejaVuSans-2b" x="1232.470703"/>
    <use xlink:href="#DejaVuSans-20" x="1316.259766"/>
    <use xlink:href="#DejaVuSans-72" x="1348.046875"/>
    <use xlink:href="#DejaVuSans-65" x="1386.910156"/>
    <use xlink:href="#DejaVuSans-6f" x="1448.433594"/>
    <use xlink:href="#DejaVuSans-72" x="1509.615234"/>
    <use xlink:href="#DejaVuSans-64" x="1548.978516"/>
    <use xlink:href="#DejaVuSans-65" x="1612.455078"/>
    <use xlink:href="#DejaVuSans-72" x="1673.978516"/>
    <use xlink:href="#DejaVuSans-20" x="1715.091797"/>
    <use xlink:href="#DejaVuSans-28" x="1746.878906"/>
    <use xlink:href="#DejaVuSans-69" x="1785.892578"/>
    <use xlink:href="#DejaVuSans-2c" x="1813.675781"/>
    <use xlink:href="#DejaVuSans-6a" x="1845.462891"/>
    <use xlink:href="#DejaVuSans-2c" x="1873.246094"/>
    <use xlink:href="#DejaVuSans-6b" x="1905.033203"/>
    <use xlink:href="#DejaVuSans-2c" x="1962.943359"/>
    <use xlink:href="#DejaVuSans-20" x="1994.730469"/>
    <use xlink:href="#DejaVuSans-6f" x="2026.517578"/>
    <use xlink:href="#DejaVuSans-72" x="2087.699219"/>
    <use xlink:href="#DejaVuSans-64" x="2127.0625"/>
    <use xlink:href="#DejaVuSans-65" x="2190.539062"/>
    <use xlink:href="#DejaVuSans-72" x="2252.0625"/>
    <use xlink:href="#DejaVuSans-29" x="2293.175781"/>
    <use xlink:href="#DejaVuSans-20" x="2332.189453"/>
    <use xlink:href="#DejaVuSans-6f" x="2363.976562"/>
    <use xlink:href="#DejaVuSans-66" x="2425.158203"/>
    <use xlink:href="#DejaVuSans-20" x="2460.363281"/>
    <use xlink:href="#DejaVuSans-32" x="2492.150391"/>
    <use xlink:href="#DejaVuSans-35" x="2555.773438"/>
    <use xlink:href="#DejaVuSans-36" x="2619.396484"/>
    <use xlink:href="#DejaVuSans-78" x="2683.019531"/>
    <use xlink:href="#DejaVuSans-32" x="2742.199219"/>
    <use xlink:href="#DejaVuSans-35" x="2805.822266"/>
    <use xlink:href="#DejaVuSans-36" x="2869.445312"/>
    <use xlink:href="#DejaVuSans-78" x="2933.068359"/>
    <use xlink:href="#DejaVuSans-35" x="2992.248047"/>
    <use xlink:href="#DejaVuSans-31" x="3055.871094"/>
    <use xlink:href="#DejaVuSans-32" x="3119.494141"/>
    <use xlink:href="#DejaVuSans-20" x="3183.117188"/>
    <use xlink:href="#DejaVuSans-76" x="3214.904297"/>
    <use xlink:href="#DejaVuSans-65" x="3274.083984"/>
    <use xlink:href="#DejaVuSans-63" x="3335.607422"/>
    <use xlink:href="#DejaVuSans-74" x="3390.587891"/>
    <use xlink:href="#DejaVuSans-6f" x="3429.796875"/>
    <use xlink:href="#DejaVuSans-72" x="3490.978516"/>
    <use xlink:href="#DejaVuSans-69" x="3532.091797"/>
    <use xlink:href="#DejaVuSans-7a" x="3559.875"/>
    <use xlink:href="#DejaVuSans-65" x="3612.365234"/>
    <use xlink:href="#DejaVuSans-64" x="3673.888672"/>
    <use xlink:href="#DejaVuSans-20" x="3737.365234"/>
    <use xlink:href="#DejaVuSans-6d" x="3769.152344"/>
    <use xlink:href="#DejaVuSans-61" x="3866.564453"/>
    <use xlink:href="#DejaVuSans-74" x="3927.84375"/>
    <use xlink:href="#DejaVuSans-6d" x="3967.052734"/>
    <use xlink:href="#DejaVuSans-75" x="4064.464844"/>
    <use xlink:href="#DejaVuSans-6c" x="4127.84375"/>
   </g>
  </g>
 </g>
 <defs>
  <clipPath id="p2d5d69e658">
   <rect x="62.788267" y="86.4256" width="656.059733" height="264.123733"/>
  </clipPath>
  <clipPath id="p3c815dcbac">
   <rect x="62.788267" y="425.5744" width="656.059733" height="264.123733"/>
  </clipPath>
 </defs>
</svg>
